{
  "accessors": [
    {
      "bufferView": 2,
      "componentType": 5126,
      "count": 65533,
      "max": [
        1.8759607076644897,
        1.4934977293014526,
        2.780045509338379
      ],
      "min": [
        -2.2632107734680176,
        -2.0190072059631348,
        -3.1171956062316895
      ],
      "type": "VEC3"
    },
    {
      "bufferView": 2,
      "byteOffset": 786396,
      "componentType": 5126,
      "count": 65533,
      "max": [
        0.999913215637207,
        0.9999508261680603,
        0.9999874830245972
      ],
      "min": [
        -0.9999129176139832,
        -0.9999521374702454,
        -0.9999873638153076
      ],
      "type": "VEC3"
    },
    {
      "bufferView": 1,
      "componentType": 5126,
      "count": 65533,
      "max": [
        0.7594038844108582,
        0.9176217317581177
      ],
      "min": [
        0.5879333019256592,
        0.6781081557273865
      ],
      "type": "VEC2"
    },
    {
      "bufferView": 0,
      "componentType": 5125,
      "count": 98391,
      "type": "SCALAR"
    },
    {
      "bufferView": 2,
      "byteOffset": 1572792,
      "componentType": 5126,
      "count": 65534,
      "max": [
        1.6531754732131958,
        1.5967745780944824,
        2.152423143386841
      ],
      "min": [
        -1.5157560110092163,
        -1.4478179216384888,
        -2.618852376937866
      ],
      "type": "VEC3"
    },
    {
      "bufferView": 2,
      "byteOffset": 2359200,
      "componentType": 5126,
      "count": 65534,
      "max": [
        0.9998390674591064,
        0.999844491481781,
        0.9999770522117615
      ],
      "min": [
        -0.9998717904090881,
        -0.9998613595962524,
        -0.9999380707740784
      ],
      "type": "VEC3"
    },
    {
      "bufferView": 1,
      "byteOffset": 524264,
      "componentType": 5126,
      "count": 65534,
      "max": [
        0.7322651743888855,
        0.8881198763847351
      ],
      "min": [
        0.5829510688781738,
        0.6757241487503052
      ],
      "type": "VEC2"
    },
    {
      "bufferView": 0,
      "byteOffset": 393564,
      "componentType": 5125,
      "count": 98298,
      "type": "SCALAR"
    },
    {
      "bufferView": 2,
      "byteOffset": 3145608,
      "componentType": 5126,
      "count": 65534,
      "max": [
        1.6754547357559204,
        1.529311180114746,
        1.7834492921829224
      ],
      "min": [
        -1.388202428817749,
        -2.291991949081421,
        -3.436640739440918
      ],
      "type": "VEC3"
    },
    {
      "bufferView": 2,
      "byteOffset": 3932016,
      "componentType": 5126,
      "count": 65534,
      "max": [
        0.999903678894043,
        0.9998233914375305,
        0.9999933242797852
      ],
      "min": [
        -0.99989253282547,
        -0.9998214840888977,
        -0.9999921917915344
      ],
      "type": "VEC3"
    },
    {
      "bufferView": 1,
      "byteOffset": 1048536,
      "componentType": 5126,
      "count": 65534,
      "max": [
        0.7310736179351807,
        0.8718065619468689
      ],
      "min": [
        0.5883399248123169,
        0.642433226108551
      ],
      "type": "VEC2"
    },
    {
      "bufferView": 0,
      "byteOffset": 786756,
      "componentType": 5125,
      "count": 98298,
      "type": "SCALAR"
    },
    {
      "bufferView": 2,
      "byteOffset": 4718424,
      "componentType": 5126,
      "count": 65534,
      "max": [
        1.4681378602981567,
        1.5365653038024902,
        2.3973634243011475
      ],
      "min": [
        -1.6564114093780518,
        -1.9924037456512451,
        -3.1942522525787354
      ],
      "type": "VEC3"
    },
    {
      "bufferView": 2,
      "byteOffset": 5504832,
      "componentType": 5126,
      "count": 65534,
      "max": [
        0.9996510744094849,
        0.999526858329773,
        0.9999971985816956
      ],
      "min": [
        -0.9996845126152039,
        -0.9995915293693542,
        -0.9999986886978149
      ],
      "type": "VEC3"
    },
    {
      "bufferView": 1,
      "byteOffset": 1572808,
      "componentType": 5126,
      "count": 65534,
      "max": [
        0.7501181960105896,
        0.9000051617622375
      ],
      "min": [
        0.5843061804771423,
        0.674699604511261
      ],
      "type": "VEC2"
    },
    {
      "bufferView": 0,
      "byteOffset": 1179948,
      "componentType": 5125,
      "count": 98298,
      "type": "SCALAR"
    },
    {
      "bufferView": 2,
      "byteOffset": 6291240,
      "componentType": 5126,
      "count": 65534,
      "max": [
        1.5422707796096802,
        1.6630271673202515,
        1.7766201496124268
      ],
      "min": [
        -2.109891891479492,
        -2.28989315032959,
        -1.597739577293396
      ],
      "type": "VEC3"
    },
    {
      "bufferView": 2,
      "byteOffset": 7077648,
      "componentType": 5126,
      "count": 65534,
      "max": [
        0.9999799132347107,
        0.9998400211334229,
        0.9997656345367432
      ],
      "min": [
        -0.999980092048645,
        -0.9998412132263184,
        -0.9997642040252686
      ],
      "type": "VEC3"
    },
    {
      "bufferView": 1,
      "byteOffset": 2097080,
      "componentType": 5126,
      "count": 65534,
      "max": [
        0.7459036707878113,
        0.8714584112167358
      ],
      "min": [
        0.577177882194519,
        0.6914554834365845
      ],
      "type": "VEC2"
    },
    {
      "bufferView": 0,
      "byteOffset": 1573140,
      "componentType": 5125,
      "count": 98298,
      "type": "SCALAR"
    },
    {
      "bufferView": 2,
      "byteOffset": 7864056,
      "componentType": 5126,
      "count": 65534,
      "max": [
        1.9647189378738403,
        1.2722210884094238,
        2.1170389652252197
      ],
      "min": [
        -1.2382657527923584,
        -2.2483577728271484,
        -3.5042409896850586
      ],
      "type": "VEC3"
    },
    {
      "bufferView": 2,
      "byteOffset": 8650464,
      "componentType": 5126,
      "count": 65534,
      "max": [
        0.9997920393943787,
        0.9996405839920044,
        0.9999376535415649
      ],
      "min": [
        -0.9997902512550354,
        -0.9998189806938171,
        -0.999940037727356
      ],
      "type": "VEC3"
    },
    {
      "bufferView": 1,
      "byteOffset": 2621352,
      "componentType": 5126,
      "count": 65534,
      "max": [
        0.7212491631507874,
        0.8858571648597717
      ],
      "min": [
        0.5930219292640686,
        0.6430294513702393
      ],
      "type": "VEC2"
    },
    {
      "bufferView": 0,
      "byteOffset": 1966332,
      "componentType": 5125,
      "count": 98298,
      "type": "SCALAR"
    },
    {
      "bufferView": 2,
      "byteOffset": 9436872,
      "componentType": 5126,
      "count": 65534,
      "max": [
        1.2560486793518066,
        1.554930567741394,
        2.088118553161621
      ],
      "min": [
        -1.4622877836227417,
        -2.0727977752685547,
        -2.444019079208374
      ],
      "type": "VEC3"
    },
    {
      "bufferView": 2,
      "byteOffset": 10223280,
      "componentType": 5126,
      "count": 65534,
      "max": [
        0.9999675750732422,
        0.9996424913406372,
        0.9998854398727417
      ],
      "min": [
        -0.9999668598175049,
        -0.9996243715286255,
        -0.9998964667320251
      ],
      "type": "VEC3"
    },
    {
      "bufferView": 1,
      "byteOffset": 3145624,
      "componentType": 5126,
      "count": 65534,
      "max": [
        0.7416014075279236,
        0.8994537591934204
      ],
      "min": [
        0.588997483253479,
        0.6691158413887024
      ],
      "type": "VEC2"
    },
    {
      "bufferView": 0,
      "byteOffset": 2359524,
      "componentType": 5125,
      "count": 98298,
      "type": "SCALAR"
    },
    {
      "bufferView": 2,
      "byteOffset": 11009688,
      "componentType": 5126,
      "count": 65534,
      "max": [
        1.5358868837356567,
        2.004659652709961,
        2.6359357833862305
      ],
      "min": [
        -2.284177303314209,
        -2.0709826946258545,
        -2.1765477657318115
      ],
      "type": "VEC3"
    },
    {
      "bufferView": 2,
      "byteOffset": 11796096,
      "componentType": 5126,
      "count": 65534,
      "max": [
        0.9999825954437256,
        0.9998549818992615,
        0.9999464750289917
      ],
      "min": [
        -0.9999879002571106,
        -0.9998428821563721,
        -0.9999460577964783
      ],
      "type": "VEC3"
    },
    {
      "bufferView": 1,
      "byteOffset": 3669896,
      "componentType": 5126,
      "count": 65534,
      "max": [
        0.748044490814209,
        0.9109201431274414
      ],
      "min": [
        0.5776071548461914,
        0.6807615160942078
      ],
      "type": "VEC2"
    },
    {
      "bufferView": 0,
      "byteOffset": 2752716,
      "componentType": 5125,
      "count": 98298,
      "type": "SCALAR"
    },
    {
      "bufferView": 2,
      "byteOffset": 12582504,
      "componentType": 5126,
      "count": 65534,
      "max": [
        1.5104109048843384,
        1.3133609294891357,
        1.7792060375213623
      ],
      "min": [
        -2.2798001766204834,
        -1.5297179222106934,
        -3.7044355869293213
      ],
      "type": "VEC3"
    },
    {
      "bufferView": 2,
      "byteOffset": 13368912,
      "componentType": 5126,
      "count": 65534,
      "max": [
        0.9997403621673584,
        0.9999635815620422,
        0.9999890923500061
      ],
      "min": [
        -0.9996887445449829,
        -0.9999677538871765,
        -0.9999918937683105
      ],
      "type": "VEC3"
    },
    {
      "bufferView": 1,
      "byteOffset": 4194168,
      "componentType": 5126,
      "count": 65534,
      "max": [
        0.7269039750099182,
        0.8708012104034424
      ],
      "min": [
        0.5876463651657104,
        0.6322407722473145
      ],
      "type": "VEC2"
    },
    {
      "bufferView": 0,
      "byteOffset": 3145908,
      "componentType": 5125,
      "count": 98298,
      "type": "SCALAR"
    },
    {
      "bufferView": 2,
      "byteOffset": 14155320,
      "componentType": 5126,
      "count": 65534,
      "max": [
        1.563926100730896,
        1.7355594635009766,
        2.160121440887451
      ],
      "min": [
        -2.136922597885132,
        -2.0076496601104736,
        -3.072922468185425
      ],
      "type": "VEC3"
    },
    {
      "bufferView": 2,
      "byteOffset": 14941728,
      "componentType": 5126,
      "count": 65534,
      "max": [
        0.9999424815177917,
        0.9999738931655884,
        0.9998995065689087
      ],
      "min": [
        -0.9999580979347229,
        -0.9999738931655884,
        -0.9998719096183777
      ],
      "type": "VEC3"
    },
    {
      "bufferView": 1,
      "byteOffset": 4718440,
      "componentType": 5126,
      "count": 65534,
      "max": [
        0.7448238134384155,
        0.8898369669914246
      ],
      "min": [
        0.5722164511680603,
        0.6884318590164185
      ],
      "type": "VEC2"
    },
    {
      "bufferView": 0,
      "byteOffset": 3539100,
      "componentType": 5125,
      "count": 98298,
      "type": "SCALAR"
    },
    {
      "bufferView": 2,
      "byteOffset": 15728136,
      "componentType": 5126,
      "count": 65534,
      "max": [
        1.576359748840332,
        1.5635874271392822,
        2.6202738285064697
      ],
      "min": [
        -1.4441752433776855,
        -1.697941541671753,
        -2.6198699474334717
      ],
      "type": "VEC3"
    },
    {
      "bufferView": 2,
      "byteOffset": 16514544,
      "componentType": 5126,
      "count": 65534,
      "max": [
        0.9999843835830688,
        0.9999462962150574,
        0.9998781085014343
      ],
      "min": [
        -0.9999957084655762,
        -0.99993896484375,
        -0.9998303055763245
      ],
      "type": "VEC3"
    },
    {
      "bufferView": 1,
      "byteOffset": 5242712,
      "componentType": 5126,
      "count": 65534,
      "max": [
        0.7306748032569885,
        0.9105834364891052
      ],
      "min": [
        0.5860899686813354,
        0.6724820137023926
      ],
      "type": "VEC2"
    },
    {
      "bufferView": 0,
      "byteOffset": 3932292,
      "componentType": 5125,
      "count": 98298,
      "type": "SCALAR"
    },
    {
      "bufferView": 2,
      "byteOffset": 17300952,
      "componentType": 5126,
      "count": 65534,
      "max": [
        1.6465346813201904,
        1.9313071966171265,
        2.1557137966156006
      ],
      "min": [
        -2.1738669872283936,
        -2.082080125808716,
        -3.1111252307891846
      ],
      "type": "VEC3"
    },
    {
      "bufferView": 2,
      "byteOffset": 18087360,
      "componentType": 5126,
      "count": 65534,
      "max": [
        0.9999089241027832,
        0.9997317790985107,
        0.9999992251396179
      ],
      "min": [
        -0.9999109506607056,
        -0.9997400641441345,
        -0.9999989867210388
      ],
      "type": "VEC3"
    },
    {
      "bufferView": 1,
      "byteOffset": 5766984,
      "componentType": 5126,
      "count": 65534,
      "max": [
        0.7547094821929932,
        0.8878169655799866
      ],
      "min": [
        0.5822156667709351,
        0.6744705438613892
      ],
      "type": "VEC2"
    },
    {
      "bufferView": 0,
      "byteOffset": 4325484,
      "componentType": 5125,
      "count": 98298,
      "type": "SCALAR"
    },
    {
      "bufferView": 2,
      "byteOffset": 18873768,
      "componentType": 5126,
      "count": 65534,
      "max": [
        1.582006573677063,
        1.6086571216583252,
        1.9080530405044556
      ],
      "min": [
        -2.2331326007843018,
        -1.4926823377609253,
        -2.633603811264038
      ],
      "type": "VEC3"
    },
    {
      "bufferView": 2,
      "byteOffset": 19660176,
      "componentType": 5126,
      "count": 65534,
      "max": [
        0.9999017119407654,
        0.999495267868042,
        0.9999717473983765
      ],
      "min": [
        -0.9999021887779236,
        -0.999264121055603,
        -0.9999695420265198
      ],
      "type": "VEC3"
    },
    {
      "bufferView": 1,
      "byteOffset": 6291256,
      "componentType": 5126,
      "count": 65534,
      "max": [
        0.7478810548782349,
        0.8777824640274048
      ],
      "min": [
        0.588962197303772,
        0.6767539978027344
      ],
      "type": "VEC2"
    },
    {
      "bufferView": 0,
      "byteOffset": 4718676,
      "componentType": 5125,
      "count": 98298,
      "type": "SCALAR"
    },
    {
      "bufferView": 2,
      "byteOffset": 20446584,
      "componentType": 5126,
      "count": 65534,
      "max": [
        1.5630236864089966,
        1.5507289171218872,
        2.020826578140259
      ],
      "min": [
        -2.2117249965667725,
        -1.4336280822753906,
        -3.314561367034912
      ],
      "type": "VEC3"
    },
    {
      "bufferView": 2,
      "byteOffset": 21232992,
      "componentType": 5126,
      "count": 65534,
      "max": [
        0.9999803900718689,
        0.9998908638954163,
        0.9996901154518127
      ],
      "min": [
        -0.9999805092811584,
        -0.999888002872467,
        -0.9997246265411377
      ],
      "type": "VEC3"
    },
    {
      "bufferView": 1,
      "byteOffset": 6815528,
      "componentType": 5126,
      "count": 65534,
      "max": [
        0.7416117787361145,
        0.8810012936592102
      ],
      "min": [
        0.5767173767089844,
        0.6639413237571716
      ],
      "type": "VEC2"
    },
    {
      "bufferView": 0,
      "byteOffset": 5111868,
      "componentType": 5125,
      "count": 98298,
      "type": "SCALAR"
    },
    {
      "bufferView": 2,
      "byteOffset": 22019400,
      "componentType": 5126,
      "count": 65534,
      "max": [
        1.6130614280700684,
        1.4518065452575684,
        2.180743932723999
      ],
      "min": [
        -2.2231392860412598,
        -1.9814088344573975,
        -3.1387522220611572
      ],
      "type": "VEC3"
    },
    {
      "bufferView": 2,
      "byteOffset": 22805808,
      "componentType": 5126,
      "count": 65534,
      "max": [
        0.9997652769088745,
        0.9999931454658508,
        0.9998106360435486
      ],
      "min": [
        -0.9997451305389404,
        -0.9999674558639526,
        -0.9998056292533875
      ],
      "type": "VEC3"
    },
    {
      "bufferView": 1,
      "byteOffset": 7339800,
      "componentType": 5126,
      "count": 65534,
      "max": [
        0.7490684986114502,
        0.8900947570800781
      ],
      "min": [
        0.5832490921020508,
        0.6768607497215271
      ],
      "type": "VEC2"
    },
    {
      "bufferView": 0,
      "byteOffset": 5505060,
      "componentType": 5125,
      "count": 98298,
      "type": "SCALAR"
    },
    {
      "bufferView": 2,
      "byteOffset": 23592216,
      "componentType": 5126,
      "count": 65534,
      "max": [
        1.7845511436462402,
        1.3299504518508911,
        2.1407864093780518
      ],
      "min": [
        -2.200650691986084,
        -1.6440244913101196,
        -3.6744682788848877
      ],
      "type": "VEC3"
    },
    {
      "bufferView": 2,
      "byteOffset": 24378624,
      "componentType": 5126,
      "count": 65534,
      "max": [
        0.9999357461929321,
        0.9998742341995239,
        0.9999937415122986
      ],
      "min": [
        -0.9999313950538635,
        -0.9998743534088135,
        -0.999993622303009
      ],
      "type": "VEC3"
    },
    {
      "bufferView": 1,
      "byteOffset": 7864072,
      "componentType": 5126,
      "count": 65534,
      "max": [
        0.7356671094894409,
        0.8867725729942322
      ],
      "min": [
        0.5885816216468811,
        0.6333540081977844
      ],
      "type": "VEC2"
    },
    {
      "bufferView": 0,
      "byteOffset": 5898252,
      "componentType": 5125,
      "count": 98298,
      "type": "SCALAR"
    },
    {
      "bufferView": 2,
      "byteOffset": 25165032,
      "componentType": 5126,
      "count": 65533,
      "max": [
        1.5209542512893677,
        1.3052341938018799,
        2.666043519973755
      ],
      "min": [
        -2.130156993865967,
        -1.6282087564468384,
        -3.185486316680908
      ],
      "type": "VEC3"
    },
    {
      "bufferView": 2,
      "byteOffset": 25951428,
      "componentType": 5126,
      "count": 65533,
      "max": [
        0.9994468092918396,
        0.9997466802597046,
        0.9999861121177673
      ],
      "min": [
        -0.9994798302650452,
        -0.9997191429138184,
        -0.9999858736991882
      ],
      "type": "VEC3"
    },
    {
      "bufferView": 1,
      "byteOffset": 8388344,
      "componentType": 5126,
      "count": 65533,
      "max": [
        0.7408691644668579,
        0.9124642014503479
      ],
      "min": [
        0.5885460376739502,
        0.6587088108062744
      ],
      "type": "VEC2"
    },
    {
      "bufferView": 0,
      "byteOffset": 6291444,
      "componentType": 5125,
      "count": 98289,
      "type": "SCALAR"
    },
    {
      "bufferView": 2,
      "byteOffset": 26737824,
      "componentType": 5126,
      "count": 65534,
      "max": [
        1.619097352027893,
        1.6083375215530396,
        1.9194260835647583
      ],
      "min": [
        -2.2217824459075928,
        -2.2327165603637695,
        -3.68998384475708
      ],
      "type": "VEC3"
    },
    {
      "bufferView": 2,
      "byteOffset": 27524232,
      "componentType": 5126,
      "count": 65534,
      "max": [
        0.9999510049819946,
        0.9999605417251587,
        0.9999990463256836
      ],
      "min": [
        -0.999969482421875,
        -0.9999302625656128,
        -0.9999998211860657
      ],
      "type": "VEC3"
    },
    {
      "bufferView": 1,
      "byteOffset": 8912608,
      "componentType": 5126,
      "count": 65534,
      "max": [
        0.7158784866333008,
        0.8782635927200317
      ],
      "min": [
        0.5746826529502869,
        0.627403736114502
      ],
      "type": "VEC2"
    },
    {
      "bufferView": 0,
      "byteOffset": 6684600,
      "componentType": 5125,
      "count": 98298,
      "type": "SCALAR"
    },
    {
      "bufferView": 2,
      "byteOffset": 28310640,
      "componentType": 5126,
      "count": 65534,
      "max": [
        1.6630463600158691,
        1.3534913063049316,
        2.196922779083252
      ],
      "min": [
        -2.1681833267211914,
        -1.3560872077941895,
        -1.9055095911026
      ],
      "type": "VEC3"
    },
    {
      "bufferView": 2,
      "byteOffset": 29097048,
      "componentType": 5126,
      "count": 65534,
      "max": [
        0.999813437461853,
        0.9997754096984863,
        0.9999986886978149
      ],
      "min": [
        -0.9997426271438599,
        -0.9997956156730652,
        -0.9999995231628418
      ],
      "type": "VEC3"
    },
    {
      "bufferView": 1,
      "byteOffset": 9436880,
      "componentType": 5126,
      "count": 65534,
      "max": [
        0.7386881113052368,
        0.8896073698997498
      ],
      "min": [
        0.5926539897918701,
        0.6967138648033142
      ],
      "type": "VEC2"
    },
    {
      "bufferView": 0,
      "byteOffset": 7077792,
      "componentType": 5125,
      "count": 98298,
      "type": "SCALAR"
    },
    {
      "bufferView": 2,
      "byteOffset": 29883456,
      "componentType": 5126,
      "count": 65534,
      "max": [
        1.5728089809417725,
        1.504982590675354,
        1.9753475189208984
      ],
      "min": [
        -1.2375168800354004,
        -1.5152513980865479,
        -3.4407706260681152
      ],
      "type": "VEC3"
    },
    {
      "bufferView": 2,
      "byteOffset": 30669864,
      "componentType": 5126,
      "count": 65534,
      "max": [
        0.9999333620071411,
        0.9996983408927917,
        0.9998902678489685
      ],
      "min": [
        -0.9999741911888123,
        -0.9996803998947144,
        -0.999866247177124
      ],
      "type": "VEC3"
    },
    {
      "bufferView": 1,
      "byteOffset": 9961152,
      "componentType": 5126,
      "count": 65534,
      "max": [
        0.7244097590446472,
        0.880873441696167
      ],
      "min": [
        0.5853412747383118,
        0.6421797275543213
      ],
      "type": "VEC2"
    },
    {
      "bufferView": 0,
      "byteOffset": 7470984,
      "componentType": 5125,
      "count": 98298,
      "type": "SCALAR"
    },
    {
      "bufferView": 2,
      "byteOffset": 31456272,
      "componentType": 5126,
      "count": 65534,
      "max": [
        1.887037754058838,
        1.7027207612991333,
        2.1540448665618896
      ],
      "min": [
        -1.3824870586395264,
        -1.523253083229065,
        -1.8388820886611938
      ],
      "type": "VEC3"
    },
    {
      "bufferView": 2,
      "byteOffset": 32242680,
      "componentType": 5126,
      "count": 65534,
      "max": [
        0.9999334812164307,
        0.9999209046363831,
        0.9999505281448364
      ],
      "min": [
        -0.9999334812164307,
        -0.9999645352363586,
        -0.9997220039367676
      ],
      "type": "VEC3"
    },
    {
      "bufferView": 1,
      "byteOffset": 10485424,
      "componentType": 5126,
      "count": 65534,
      "max": [
        0.7306718230247498,
        0.8889034390449524
      ],
      "min": [
        0.5749576091766357,
        0.6766599416732788
      ],
      "type": "VEC2"
    },
    {
      "bufferView": 0,
      "byteOffset": 7864176,
      "componentType": 5125,
      "count": 98298,
      "type": "SCALAR"
    },
    {
      "bufferView": 2,
      "byteOffset": 33029088,
      "componentType": 5126,
      "count": 65534,
      "max": [
        1.0512653589248657,
        1.5265297889709473,
        2.156315803527832
      ],
      "min": [
        -1.0901508331298828,
        -1.77108633518219,
        -0.9590769410133362
      ],
      "type": "VEC3"
    },
    {
      "bufferView": 2,
      "byteOffset": 33815496,
      "componentType": 5126,
      "count": 65534,
      "max": [
        0.9999392628669739,
        0.9998449087142944,
        0.9999853372573853
      ],
      "min": [
        -0.9999411106109619,
        -0.9998373985290527,
        -0.9999869465827942
      ],
      "type": "VEC3"
    },
    {
      "bufferView": 1,
      "byteOffset": 11009696,
      "componentType": 5126,
      "count": 65534,
      "max": [
        0.7361941933631897,
        0.8878481984138489
      ],
      "min": [
        0.589738667011261,
        0.7457997798919678
      ],
      "type": "VEC2"
    },
    {
      "bufferView": 0,
      "byteOffset": 8257368,
      "componentType": 5125,
      "count": 98298,
      "type": "SCALAR"
    },
    {
      "bufferView": 2,
      "byteOffset": 34601904,
      "componentType": 5126,
      "count": 65534,
      "max": [
        1.2761733531951904,
        1.6415636539459229,
        2.209247589111328
      ],
      "min": [
        -2.321976661682129,
        -2.129957914352417,
        -3.4262564182281494
      ],
      "type": "VEC3"
    },
    {
      "bufferView": 2,
      "byteOffset": 35388312,
      "componentType": 5126,
      "count": 65534,
      "max": [
        0.999811589717865,
        0.9999279975891113,
        0.9998226761817932
      ],
      "min": [
        -0.9998165369033813,
        -0.9999297261238098,
        -0.9998242259025574
      ],
      "type": "VEC3"
    },
    {
      "bufferView": 1,
      "byteOffset": 11533968,
      "componentType": 5126,
      "count": 65534,
      "max": [
        0.7442996501922607,
        0.8911253213882446
      ],
      "min": [
        0.5782663226127625,
        0.6483432650566101
      ],
      "type": "VEC2"
    },
    {
      "bufferView": 0,
      "byteOffset": 8650560,
      "componentType": 5125,
      "count": 98298,
      "type": "SCALAR"
    },
    {
      "bufferView": 2,
      "byteOffset": 36174720,
      "componentType": 5126,
      "count": 65534,
      "max": [
        1.6105875968933105,
        1.5797697305679321,
        2.5747122764587402
      ],
      "min": [
        -2.1209914684295654,
        -1.74506676197052,
        -3.327327013015747
      ],
      "type": "VEC3"
    },
    {
      "bufferView": 2,
      "byteOffset": 36961128,
      "componentType": 5126,
      "count": 65534,
      "max": [
        0.9996939301490784,
        0.9999831318855286,
        0.9999992847442627
      ],
      "min": [
        -0.9997819662094116,
        -0.9999741315841675,
        -0.9999988079071045
      ],
      "type": "VEC3"
    },
    {
      "bufferView": 1,
      "byteOffset": 12058240,
      "componentType": 5126,
      "count": 65534,
      "max": [
        0.744309663772583,
        0.9080069065093994
      ],
      "min": [
        0.5788931846618652,
        0.663138210773468
      ],
      "type": "VEC2"
    },
    {
      "bufferView": 0,
      "byteOffset": 9043752,
      "componentType": 5125,
      "count": 98298,
      "type": "SCALAR"
    },
    {
      "bufferView": 2,
      "byteOffset": 37747536,
      "componentType": 5126,
      "count": 65534,
      "max": [
        1.5464781522750854,
        1.6768680810928345,
        2.1419575214385986
      ],
      "min": [
        -1.3928682804107666,
        -1.3532090187072754,
        -2.6547842025756836
      ],
      "type": "VEC3"
    },
    {
      "bufferView": 2,
      "byteOffset": 38533944,
      "componentType": 5126,
      "count": 65534,
      "max": [
        0.9999659061431885,
        0.999922513961792,
        0.9999691843986511
      ],
      "min": [
        -0.9999597668647766,
        -0.9999191164970398,
        -0.9999664425849915
      ],
      "type": "VEC3"
    },
    {
      "bufferView": 1,
      "byteOffset": 12582512,
      "componentType": 5126,
      "count": 65534,
      "max": [
        0.7179151773452759,
        0.8870954513549805
      ],
      "min": [
        0.5844792723655701,
        0.6769699454307556
      ],
      "type": "VEC2"
    },
    {
      "bufferView": 0,
      "byteOffset": 9436944,
      "componentType": 5125,
      "count": 98298,
      "type": "SCALAR"
    },
    {
      "bufferView": 2,
      "byteOffset": 39320352,
      "componentType": 5126,
      "count": 65534,
      "max": [
        2.286486864089966,
        0.9127582311630249,
        2.1411123275756836
      ],
      "min": [
        -2.147716522216797,
        -1.6394538879394531,
        -3.050366163253784
      ],
      "type": "VEC3"
    },
    {
      "bufferView": 2,
      "byteOffset": 40106760,
      "componentType": 5126,
      "count": 65534,
      "max": [
        0.9996010661125183,
        0.9996894001960754,
        0.999880850315094
      ],
      "min": [
        -0.9996296763420105,
        -0.9996494054794312,
        -0.9998976588249207
      ],
      "type": "VEC3"
    },
    {
      "bufferView": 1,
      "byteOffset": 13106784,
      "componentType": 5126,
      "count": 65534,
      "max": [
        0.7388367652893066,
        0.8890929222106934
      ],
      "min": [
        0.5945112109184265,
        0.6889575719833374
      ],
      "type": "VEC2"
    },
    {
      "bufferView": 0,
      "byteOffset": 9830136,
      "componentType": 5125,
      "count": 98298,
      "type": "SCALAR"
    },
    {
      "bufferView": 2,
      "byteOffset": 40893168,
      "componentType": 5126,
      "count": 65534,
      "max": [
        1.3162566423416138,
        2.01153826713562,
        2.1894640922546387
      ],
      "min": [
        -1.4261624813079834,
        -1.6424551010131836,
        -1.7319837808609009
      ],
      "type": "VEC3"
    },
    {
      "bufferView": 2,
      "byteOffset": 41679576,
      "componentType": 5126,
      "count": 65534,
      "max": [
        0.999875009059906,
        0.9999197125434875,
        0.9999947547912598
      ],
      "min": [
        -0.9998782873153687,
        -0.9999025464057922,
        -0.9999949932098389
      ],
      "type": "VEC3"
    },
    {
      "bufferView": 1,
      "byteOffset": 13631056,
      "componentType": 5126,
      "count": 65534,
      "max": [
        0.7357989549636841,
        0.889163613319397
      ],
      "min": [
        0.580370306968689,
        0.7017589807510376
      ],
      "type": "VEC2"
    },
    {
      "bufferView": 0,
      "byteOffset": 10223328,
      "componentType": 5125,
      "count": 98298,
      "type": "SCALAR"
    },
    {
      "bufferView": 2,
      "byteOffset": 42465984,
      "componentType": 5126,
      "count": 20639,
      "max": [
        1.5993831157684326,
        1.1465696096420288,
        2.226210832595825
      ],
      "min": [
        -1.183527946472168,
        -1.30047607421875,
        -1.6021665334701538
      ],
      "type": "VEC3"
    },
    {
      "bufferView": 2,
      "byteOffset": 42713652,
      "componentType": 5126,
      "count": 20639,
      "max": [
        0.999470055103302,
        0.9998916983604431,
        0.9999889731407166
      ],
      "min": [
        -0.9995142817497253,
        -0.9998971819877625,
        -0.999991774559021
      ],
      "type": "VEC3"
    },
    {
      "bufferView": 1,
      "byteOffset": 14155328,
      "componentType": 5126,
      "count": 20639,
      "max": [
        0.7185502052307129,
        0.89118492603302
      ],
      "min": [
        0.5977879166603088,
        0.6952614784240723
      ],
      "type": "VEC2"
    },
    {
      "bufferView": 0,
      "byteOffset": 10616520,
      "componentType": 5125,
      "count": 30957,
      "type": "SCALAR"
    },
    {
      "bufferView": 3,
      "componentType": 5126,
      "count": 297,
      "max": [
        6.25
      ],
      "min": [
        0.0
      ],
      "type": "SCALAR"
    },
    {
      "bufferView": 4,
      "componentType": 5126,
      "count": 297,
      "max": [
        0.4986876845359802,
        0.5862341523170471,
        0.5862342715263367,
        0.7071028351783752
      ],
      "min": [
        -0.7071029543876648,
        -0.496805340051651,
        -0.4968053996562958,
        -0.49868759512901306
      ],
      "type": "VEC4"
    }
  ],
  "animations": [
    {
      "channels": [
        {
          "sampler": 0,
          "target": {
            "node": 9,
            "path": "rotation"
          }
        }
      ],
      "name": "Mesh|MeshAction",
      "samplers": [
        {
          "input": 112,
          "interpolation": "LINEAR",
          "output": 113
        }
      ]
    }
  ],
  "asset": {
    "extras": {
      "author": "ParuthidotExE (https://sketchfab.com/ParuthidotExE)",
      "license": "CC-BY-4.0 (http://creativecommons.org/licenses/by/4.0/)",
      "source": "https://sketchfab.com/3d-models/modern-art-026-teleporting-human-19f29fe2657d456282b9dac333b6bfdb",
      "title": "Modern Art 026 Teleporting Human"
    },
    "generator": "Sketchfab-12.66.0",
    "version": "2.0"
  },
  "bufferViews": [
    {
      "buffer": 0,
      "byteLength": 10740348,
      "name": "floatBufferViews",
      "target": 34963
    },
    {
      "buffer": 0,
      "byteLength": 14320440,
      "byteOffset": 10740348,
      "byteStride": 8,
      "name": "floatBufferViews",
      "target": 34962
    },
    {
      "buffer": 0,
      "byteLength": 42961320,
      "byteOffset": 25060788,
      "byteStride": 12,
      "name": "floatBufferViews",
      "target": 34962
    },
    {
      "buffer": 0,
      "byteLength": 1188,
      "byteOffset": 68022108,
      "name": "floatBufferViews"
    },
    {
      "buffer": 0,
      "byteLength": 4752,
      "byteOffset": 68023296,
      "byteStride": 16,
      "name": "floatBufferViews"
    }
  ],
  "buffers": [
    {
      "byteLength": 68028048,
      "uri": "scene.bin"
    }
  ],
  "extensionsRequired": [
    "KHR_materials_pbrSpecularGlossiness"
  ],
  "extensionsUsed": [
    "KHR_materials_pbrSpecularGlossiness"
  ],
  "images": [
    {
      "uri": "textures/Material.001_diffuse.png"
    }
  ],
  "materials": [
    {
      "doubleSided": true,
      "extensions": {
        "KHR_materials_pbrSpecularGlossiness": {
          "diffuseFactor": [
            1.0,
            1.0,
            1.0,
            1.0
          ],
          "diffuseTexture": {
            "index": 0
          },
          "glossinessFactor": 0.0,
          "specularFactor": [
            0.03979167938232422,
            0.03979167938232422,
            0.03979167938232422
          ]
        }
      },
      "name": "Material.001"
    }
  ],
  "meshes": [
    {
      "name": "Mesh_Material.001_0",
      "primitives": [
        {
          "attributes": {
            "NORMAL": 1,
            "POSITION": 0,
            "TEXCOORD_0": 2
          },
          "indices": 3,
          "material": 0,
          "mode": 4
        }
      ]
    },
    {
      "name": "Mesh_Material.001_0",
      "primitives": [
        {
          "attributes": {
            "NORMAL": 5,
            "POSITION": 4,
            "TEXCOORD_0": 6
          },
          "indices": 7,
          "material": 0,
          "mode": 4
        }
      ]
    },
    {
      "name": "Mesh_Material.001_0",
      "primitives": [
        {
          "attributes": {
            "NORMAL": 9,
            "POSITION": 8,
            "TEXCOORD_0": 10
          },
          "indices": 11,
          "material": 0,
          "mode": 4
        }
      ]
    },
    {
      "name": "Mesh_Material.001_0",
      "primitives": [
        {
          "attributes": {
            "NORMAL": 13,
            "POSITION": 12,
            "TEXCOORD_0": 14
          },
          "indices": 15,
          "material": 0,
          "mode": 4
        }
      ]
    },
    {
      "name": "Mesh_Material.001_0",
      "primitives": [
        {
          "attributes": {
            "NORMAL": 17,
            "POSITION": 16,
            "TEXCOORD_0": 18
          },
          "indices": 19,
          "material": 0,
          "mode": 4
        }
      ]
    },
    {
      "name": "Mesh_Material.001_0",
      "primitives": [
        {
          "attributes": {
            "NORMAL": 21,
            "POSITION": 20,
            "TEXCOORD_0": 22
          },
          "indices": 23,
          "material": 0,
          "mode": 4
        }
      ]
    },
    {
      "name": "Mesh_Material.001_0",
      "primitives": [
        {
          "attributes": {
            "NORMAL": 25,
            "POSITION": 24,
            "TEXCOORD_0": 26
          },
          "indices": 27,
          "material": 0,
          "mode": 4
        }
      ]
    },
    {
      "name": "Mesh_Material.001_0",
      "primitives": [
        {
          "attributes": {
            "NORMAL": 29,
            "POSITION": 28,
            "TEXCOORD_0": 30
          },
          "indices": 31,
          "material": 0,
          "mode": 4
        }
      ]
    },
    {
      "name": "Mesh_Material.001_0",
      "primitives": [
        {
          "attributes": {
            "NORMAL": 33,
            "POSITION": 32,
            "TEXCOORD_0": 34
          },
          "indices": 35,
          "material": 0,
          "mode": 4
        }
      ]
    },
    {
      "name": "Mesh_Material.001_0",
      "primitives": [
        {
          "attributes": {
            "NORMAL": 37,
            "POSITION": 36,
            "TEXCOORD_0": 38
          },
          "indices": 39,
          "material": 0,
          "mode": 4
        }
      ]
    },
    {
      "name": "Mesh_Material.001_0",
      "primitives": [
        {
          "attributes": {
            "NORMAL": 41,
            "POSITION": 40,
            "TEXCOORD_0": 42
          },
          "indices": 43,
          "material": 0,
          "mode": 4
        }
      ]
    },
    {
      "name": "Mesh_Material.001_0",
      "primitives": [
        {
          "attributes": {
            "NORMAL": 45,
            "POSITION": 44,
            "TEXCOORD_0": 46
          },
          "indices": 47,
          "material": 0,
          "mode": 4
        }
      ]
    },
    {
      "name": "Mesh_Material.001_0",
      "primitives": [
        {
          "attributes": {
            "NORMAL": 49,
            "POSITION": 48,
            "TEXCOORD_0": 50
          },
          "indices": 51,
          "material": 0,
          "mode": 4
        }
      ]
    },
    {
      "name": "Mesh_Material.001_0",
      "primitives": [
        {
          "attributes": {
            "NORMAL": 53,
            "POSITION": 52,
            "TEXCOORD_0": 54
          },
          "indices": 55,
          "material": 0,
          "mode": 4
        }
      ]
    },
    {
      "name": "Mesh_Material.001_0",
      "primitives": [
        {
          "attributes": {
            "NORMAL": 57,
            "POSITION": 56,
            "TEXCOORD_0": 58
          },
          "indices": 59,
          "material": 0,
          "mode": 4
        }
      ]
    },
    {
      "name": "Mesh_Material.001_0",
      "primitives": [
        {
          "attributes": {
            "NORMAL": 61,
            "POSITION": 60,
            "TEXCOORD_0": 62
          },
          "indices": 63,
          "material": 0,
          "mode": 4
        }
      ]
    },
    {
      "name": "Mesh_Material.001_0",
      "primitives": [
        {
          "attributes": {
            "NORMAL": 65,
            "POSITION": 64,
            "TEXCOORD_0": 66
          },
          "indices": 67,
          "material": 0,
          "mode": 4
        }
      ]
    },
    {
      "name": "Mesh_Material.001_0",
      "primitives": [
        {
          "attributes": {
            "NORMAL": 69,
            "POSITION": 68,
            "TEXCOORD_0": 70
          },
          "indices": 71,
          "material": 0,
          "mode": 4
        }
      ]
    },
    {
      "name": "Mesh_Material.001_0",
      "primitives": [
        {
          "attributes": {
            "NORMAL": 73,
            "POSITION": 72,
            "TEXCOORD_0": 74
          },
          "indices": 75,
          "material": 0,
          "mode": 4
        }
      ]
    },
    {
      "name": "Mesh_Material.001_0",
      "primitives": [
        {
          "attributes": {
            "NORMAL": 77,
            "POSITION": 76,
            "TEXCOORD_0": 78
          },
          "indices": 79,
          "material": 0,
          "mode": 4
        }
      ]
    },
    {
      "name": "Mesh_Material.001_0",
      "primitives": [
        {
          "attributes": {
            "NORMAL": 81,
            "POSITION": 80,
            "TEXCOORD_0": 82
          },
          "indices": 83,
          "material": 0,
          "mode": 4
        }
      ]
    },
    {
      "name": "Mesh_Material.001_0",
      "primitives": [
        {
          "attributes": {
            "NORMAL": 85,
            "POSITION": 84,
            "TEXCOORD_0": 86
          },
          "indices": 87,
          "material": 0,
          "mode": 4
        }
      ]
    },
    {
      "name": "Mesh_Material.001_0",
      "primitives": [
        {
          "attributes": {
            "NORMAL": 89,
            "POSITION": 88,
            "TEXCOORD_0": 90
          },
          "indices": 91,
          "material": 0,
          "mode": 4
        }
      ]
    },
    {
      "name": "Mesh_Material.001_0",
      "primitives": [
        {
          "attributes": {
            "NORMAL": 93,
            "POSITION": 92,
            "TEXCOORD_0": 94
          },
          "indices": 95,
          "material": 0,
          "mode": 4
        }
      ]
    },
    {
      "name": "Mesh_Material.001_0",
      "primitives": [
        {
          "attributes": {
            "NORMAL": 97,
            "POSITION": 96,
            "TEXCOORD_0": 98
          },
          "indices": 99,
          "material": 0,
          "mode": 4
        }
      ]
    },
    {
      "name": "Mesh_Material.001_0",
      "primitives": [
        {
          "attributes": {
            "NORMAL": 101,
            "POSITION": 100,
            "TEXCOORD_0": 102
          },
          "indices": 103,
          "material": 0,
          "mode": 4
        }
      ]
    },
    {
      "name": "Mesh_Material.001_0",
      "primitives": [
        {
          "attributes": {
            "NORMAL": 105,
            "POSITION": 104,
            "TEXCOORD_0": 106
          },
          "indices": 107,
          "material": 0,
          "mode": 4
        }
      ]
    },
    {
      "name": "Mesh_Material.001_0",
      "primitives": [
        {
          "attributes": {
            "NORMAL": 109,
            "POSITION": 108,
            "TEXCOORD_0": 110
          },
          "indices": 111,
          "material": 0,
          "mode": 4
        }
      ]
    }
  ],
  "nodes": [
    {
      "children": [
        1
      ],
      "matrix": [
        0.005226052366197109,
        0.0,
        0.0,
        0.0,
        0.0,
        1.1604167329697622e-18,
        -0.005226052366197109,
        0.0,
        0.0,
        0.005226052366197109,
        1.1604167329697622e-18,
        0.0,
        0.0,
        0.0,
        0.0,
        1.0
      ],
      "name": "Sketchfab_model"
    },
    {
      "children": [
        2
      ],
      "matrix": [
        1.0,
        0.0,
        0.0,
        0.0,
        0.0,
        0.0,
        1.0,
        0.0,
        0.0,
        -1.0,
        0.0,
        0.0,
        0.0,
        0.0,
        0.0,
        1.0
      ],
      "name": "83b2fe9dd43b4665b47cb70d27081820.fbx"
    },
    {
      "children": [
        3
      ],
      "name": "Object_2"
    },
    {
      "children": [
        4,
        7,
        9
      ],
      "name": "RootNode"
    },
    {
      "children": [
        5
      ],
      "name": "Light",
      "rotation": [
        0.16907571256160736,
        0.7558803558349609,
        -0.2721713185310364,
        0.5709474682807922
      ],
      "scale": [
        100.00000762939453,
        100.0,
        100.0
      ],
      "translation": [
        407.6245422363281,
        590.38623046875,
        -808.4588012695313
      ]
    },
    {
      "children": [
        6
      ],
      "matrix": [
        1.0,
        0.0,
        0.0,
        0.0,
        0.0,
        2.220446049250313e-16,
        1.0,
        0.0,
        0.0,
        -1.0,
        2.220446049250313e-16,
        0.0,
        0.0,
        0.0,
        0.0,
        1.0
      ],
      "name": "Object_5"
    },
    {
      "name": "Object_6"
    },
    {
      "children": [
        8
      ],
      "name": "Camera",
      "rotation": [
        0.05137574300169945,
        -0.4578687846660614,
        -0.09896469861268997,
        0.8819992542266846
      ],
      "scale": [
        100.0,
        100.0,
        100.00000762939453
      ],
      "translation": [
        -967.5949096679688,
        319.0550842285156,
        -1559.532470703125
      ]
    },
    {
      "name": "Object_8"
    },
    {
      "children": [
        10,
        11,
        12,
        13,
        14,
        15,
        16,
        17,
        18,
        19,
        20,
        21,
        22,
        23,
        24,
        25,
        26,
        27,
        28,
        29,
        30,
        31,
        32,
        33,
        34,
        35,
        36,
        37
      ],
      "name": "Mesh",
      "rotation": [
        -0.6850088238716125,
        0.17539380490779877,
        0.17539383471012115,
        0.685008704662323
      ],
      "scale": [
        100.0,
        100.0,
        100.0
      ]
    },
    {
      "mesh": 0,
      "name": "Mesh_Material.001_0"
    },
    {
      "mesh": 1,
      "name": "Mesh_Material.001_0"
    },
    {
      "mesh": 2,
      "name": "Mesh_Material.001_0"
    },
    {
      "mesh": 3,
      "name": "Mesh_Material.001_0"
    },
    {
      "mesh": 4,
      "name": "Mesh_Material.001_0"
    },
    {
      "mesh": 5,
      "name": "Mesh_Material.001_0"
    },
    {
      "mesh": 6,
      "name": "Mesh_Material.001_0"
    },
    {
      "mesh": 7,
      "name": "Mesh_Material.001_0"
    },
    {
      "mesh": 8,
      "name": "Mesh_Material.001_0"
    },
    {
      "mesh": 9,
      "name": "Mesh_Material.001_0"
    },
    {
      "mesh": 10,
      "name": "Mesh_Material.001_0"
    },
    {
      "mesh": 11,
      "name": "Mesh_Material.001_0"
    },
    {
      "mesh": 12,
      "name": "Mesh_Material.001_0"
    },
    {
      "mesh": 13,
      "name": "Mesh_Material.001_0"
    },
    {
      "mesh": 14,
      "name": "Mesh_Material.001_0"
    },
    {
      "mesh": 15,
      "name": "Mesh_Material.001_0"
    },
    {
      "mesh": 16,
      "name": "Mesh_Material.001_0"
    },
    {
      "mesh": 17,
      "name": "Mesh_Material.001_0"
    },
    {
      "mesh": 18,
      "name": "Mesh_Material.001_0"
    },
    {
      "mesh": 19,
      "name": "Mesh_Material.001_0"
    },
    {
      "mesh": 20,
      "name": "Mesh_Material.001_0"
    },
    {
      "mesh": 21,
      "name": "Mesh_Material.001_0"
    },
    {
      "mesh": 22,
      "name": "Mesh_Material.001_0"
    },
    {
      "mesh": 23,
      "name": "Mesh_Material.001_0"
    },
    {
      "mesh": 24,
      "name": "Mesh_Material.001_0"
    },
    {
      "mesh": 25,
      "name": "Mesh_Material.001_0"
    },
    {
      "mesh": 26,
      "name": "Mesh_Material.001_0"
    },
    {
      "mesh": 27,
      "name": "Mesh_Material.001_0"
    }
  ],
  "samplers": [
    {
      "magFilter": 9729,
      "minFilter": 9987,
      "wrapS": 10497,
      "wrapT": 10497
    }
  ],
  "scene": 0,
  "scenes": [
    {
      "name": "Sketchfab_Scene",
      "nodes": [
        0
      ]
    }
  ],
  "textures": [
    {
      "sampler": 0,
      "source": 0
    }
  ]
}
